<svg id="Capa_1" enable-background="new 0 0 512 512" height="512" viewBox="0 0 512 512" width="512" xmlns="http://www.w3.org/2000/svg">
    <circle cx="256" cy="256" fill="#353535e6" r="156.575"/>
    <path d="m284.988 102.114c53.298 30.573 89.201 88.036 89.201 153.886s-35.903 123.313-89.201 153.886c72.623-13.596 127.587-77.317 127.587-153.886s-54.964-140.29-127.587-153.886z" fill="#353535e6"/>
    <circle cx="256" cy="32.754" fill="#353535e6" r="25.254"/>
    <path d="m266.737 9.895c1.534 3.259 2.395 6.897 2.395 10.737 0 13.947-11.307 25.254-25.254 25.254-3.84 0-7.478-.861-10.737-2.395 4.036 8.577 12.752 14.517 22.859 14.517 13.947 0 25.254-11.307 25.254-25.254 0-10.107-5.94-18.823-14.517-22.859z" fill="#353535e6"/>
    <circle cx="32.754" cy="32.754" fill="#353535e6" r="25.254"/>
    <path d="m43.491 9.895c1.534 3.259 2.395 6.897 2.395 10.737 0 13.947-11.307 25.254-25.254 25.254-3.84 0-7.478-.861-10.737-2.395 4.036 8.577 12.752 14.517 22.859 14.517 13.947 0 25.254-11.307 25.254-25.254 0-10.107-5.939-18.823-14.517-22.859z" fill="#353535e6"/>
    <circle cx="479.246" cy="256" fill="#353535e6" r="25.254"/>
    <path d="m489.983 233.141c1.534 3.259 2.395 6.897 2.395 10.737 0 13.947-11.307 25.254-25.254 25.254-3.84 0-7.478-.861-10.737-2.395 4.036 8.577 12.752 14.517 22.859 14.517 13.947 0 25.254-11.307 25.254-25.254 0-10.107-5.94-18.823-14.517-22.859z" fill="#353535e6"/>
    <circle cx="256" cy="479.246" fill="#353535e6" r="25.254"/>
    <path d="m266.737 456.387c1.534 3.259 2.395 6.897 2.395 10.737 0 13.947-11.307 25.254-25.254 25.254-3.84 0-7.478-.861-10.737-2.395 4.036 8.577 12.752 14.517 22.859 14.517 13.947 0 25.254-11.307 25.254-25.254 0-10.107-5.94-18.823-14.517-22.859z" fill="#353535e6"/>
    <circle cx="32.754" cy="256" fill="#353535e6" r="25.254"/>
    <path d="m43.491 233.141c1.534 3.259 2.395 6.897 2.395 10.737 0 13.947-11.307 25.254-25.254 25.254-3.84 0-7.478-.861-10.737-2.395 4.036 8.577 12.752 14.517 22.859 14.517 13.947 0 25.254-11.307 25.254-25.254 0-10.107-5.939-18.823-14.517-22.859z" fill="#353535e6"/>
    <circle cx="479.246" cy="32.754" fill="#353535e6" r="25.254"/>
    <path d="m456.387 43.491c3.259 1.534 6.897 2.395 10.737 2.395 13.947 0 25.254-11.307 25.254-25.254 0-3.84-.861-7.478-2.395-10.737 8.577 4.036 14.517 12.752 14.517 22.859 0 13.947-11.307 25.254-25.254 25.254-10.107 0-18.823-5.939-22.859-14.517z" fill="#353535e6"/>
    <circle cx="32.754" cy="479.246" fill="#353535e6" r="25.254"/>
    <path d="m9.895 489.983c3.259 1.534 6.897 2.395 10.737 2.395 13.947 0 25.254-11.307 25.254-25.254 0-3.84-.861-7.478-2.395-10.737 8.577 4.036 14.517 12.752 14.517 22.859 0 13.947-11.307 25.254-25.254 25.254-10.107 0-18.823-5.94-22.859-14.517z" fill="#353535e6"/>
    <circle cx="479.246" cy="479.246" fill="#353535e6" r="25.254"/>
    <path d="m489.983 456.387c1.534 3.259 2.395 6.897 2.395 10.737 0 13.947-11.307 25.254-25.254 25.254-3.84 0-7.478-.861-10.737-2.395 4.036 8.577 12.752 14.517 22.859 14.517 13.947 0 25.254-11.307 25.254-25.254 0-10.107-5.94-18.823-14.517-22.859z" fill="#353535e6"/>
    <path d="m484.487 288.329c15.577-2.516 27.513-16.052 27.513-32.329s-11.936-29.813-27.513-32.329c-6.587-46.771-27.714-90.842-60.112-125.438l37.64-37.64c5.009 3.112 10.913 4.915 17.231 4.915 18.061 0 32.754-14.693 32.754-32.754s-14.693-32.754-32.754-32.754-32.754 14.693-32.754 32.754c0 6.319 1.803 12.222 4.915 17.231l-37.64 37.64c-34.596-32.398-78.666-53.525-125.438-60.112-2.516-15.577-16.052-27.513-32.329-27.513s-29.813 11.936-32.329 27.513c-46.772 6.587-90.842 27.714-125.438 60.113l-37.64-37.64c3.112-5.009 4.916-10.913 4.916-17.231-.001-18.062-14.694-32.755-32.755-32.755s-32.754 14.693-32.754 32.754 14.693 32.754 32.754 32.754c6.319 0 12.222-1.803 17.232-4.916l37.64 37.64c-32.398 34.596-53.526 78.667-60.112 125.438-15.578 2.517-27.514 16.053-27.514 32.33s11.936 29.813 27.513 32.329c6.586 46.771 27.714 90.842 60.112 125.438l-37.64 37.64c-5.01-3.112-10.913-4.916-17.232-4.916-18.06.001-32.753 14.695-32.753 32.755s14.693 32.754 32.754 32.754 32.754-14.693 32.754-32.754c0-6.319-1.803-12.222-4.916-17.231l37.64-37.64c34.596 32.398 78.667 53.526 125.438 60.112 2.517 15.577 16.053 27.513 32.33 27.513s29.813-11.936 32.329-27.513c46.771-6.587 90.842-27.714 125.438-60.112l37.64 37.64c-3.112 5.01-4.915 10.913-4.915 17.231 0 18.061 14.693 32.754 32.754 32.754s32.754-14.693 32.754-32.754-14.693-32.754-32.754-32.754c-6.319 0-12.222 1.803-17.231 4.915l-37.64-37.64c32.398-34.596 53.525-78.666 60.112-125.438zm-228.487 158.163c-14.662 0-27.104 9.684-31.268 22.992-93.487-13.637-168.579-88.73-182.216-182.216 13.308-4.164 22.992-16.606 22.992-31.268s-9.684-27.104-22.992-31.268c13.637-93.486 88.73-168.579 182.216-182.216 4.164 13.308 16.606 22.992 31.268 22.992s27.104-9.684 31.268-22.992c93.486 13.636 168.58 88.73 182.216 182.216-13.308 4.164-22.992 16.606-22.992 31.268s9.684 27.104 22.992 31.268c-13.636 93.486-88.73 168.58-182.216 182.216-4.164-13.308-16.606-22.992-31.268-22.992zm241-190.492c0 9.789-7.965 17.754-17.754 17.754s-17.754-7.965-17.754-17.754 7.965-17.754 17.754-17.754 17.754 7.965 17.754 17.754zm-17.754-241c9.789 0 17.754 7.965 17.754 17.754s-7.965 17.754-17.754 17.754-17.754-7.965-17.754-17.754 7.965-17.754 17.754-17.754zm-223.246 0c9.789 0 17.754 7.965 17.754 17.754s-7.965 17.754-17.754 17.754c-9.79 0-17.754-7.965-17.754-17.754s7.964-17.754 17.754-17.754zm-241 17.754c0-9.789 7.964-17.754 17.754-17.754s17.754 7.965 17.754 17.754-7.964 17.754-17.754 17.754-17.754-7.965-17.754-17.754zm0 223.246c0-9.789 7.964-17.754 17.754-17.754s17.754 7.965 17.754 17.754-7.964 17.754-17.754 17.754-17.754-7.965-17.754-17.754zm17.754 241c-9.79 0-17.754-7.965-17.754-17.754s7.964-17.754 17.754-17.754 17.754 7.965 17.754 17.754-7.964 17.754-17.754 17.754zm223.246 0c-9.79 0-17.754-7.965-17.754-17.754s7.964-17.754 17.754-17.754c9.789 0 17.754 7.965 17.754 17.754s-7.965 17.754-17.754 17.754zm241-17.754c0 9.789-7.965 17.754-17.754 17.754s-17.754-7.965-17.754-17.754 7.965-17.754 17.754-17.754 17.754 7.965 17.754 17.754z"/>
    <path d="m403.214 309.979c-3.815-1.61-8.215.175-9.828 3.99-4.873 11.534-11.089 22.203-18.395 31.89-12.046-7.98-25.116-14.673-38.9-19.989 4.829-19.36 7.612-40.483 8.13-62.37h60.659c-.305 6.129-.974 12.233-2.016 18.225-.709 4.08 2.024 7.964 6.105 8.674.435.075.866.111 1.293.111 3.578 0 6.746-2.57 7.381-6.217 1.612-9.279 2.431-18.798 2.431-28.293 0-39.423-13.979-75.639-37.236-103.962-.084-.135-.165-.272-.26-.403-.325-.453-.694-.855-1.093-1.212-30.12-35.745-75.192-58.498-125.485-58.498-56.892 0-108.908 28.819-139.145 77.092-2.199 3.511-1.136 8.139 2.375 10.338 3.512 2.197 8.14 1.135 10.337-2.375 2.344-3.742 4.842-7.344 7.464-10.824 12.04 7.973 25.102 14.661 38.877 19.974-4.829 19.36-7.612 40.483-8.13 62.37h-60.661c.701-14.183 3.387-28.091 8.024-41.44 1.359-3.912-.71-8.187-4.624-9.546-3.909-1.36-8.186.71-9.545 4.624-6.004 17.281-9.048 35.403-9.048 53.862 0 39.423 13.979 75.641 37.237 103.964.084.135.165.271.259.402.325.453.694.854 1.092 1.212 30.122 35.745 75.194 58.498 125.487 58.498 66.12 0 125.471-39.357 151.204-100.269 1.612-3.816-.174-8.216-3.989-9.828zm-81.339 10.971c-18.646-5.728-38.336-9.028-58.375-9.689v-47.761h65.72c-.499 20.193-3.009 39.637-7.345 57.45zm-214.762-57.45h60.665c.518 21.887 3.301 43.011 8.13 62.37-13.752 5.304-26.794 11.978-38.818 19.934-17.51-23.128-28.443-51.498-29.977-82.304zm75.668 0h65.719v47.761c-20.039.661-39.729 3.961-58.375 9.689-4.335-17.813-6.845-37.257-7.344-57.45zm65.719 62.766v77.995c-15.905-3.423-30.944-17.669-42.979-40.986-4.389-8.503-8.175-17.872-11.349-27.889 17.329-5.357 35.655-8.462 54.328-9.12zm15 77.995v-77.995c18.673.658 36.999 3.763 54.328 9.121-3.174 10.017-6.96 19.386-11.349 27.889-12.035 23.316-27.074 37.562-42.979 40.985zm42.979-255.536c4.389 8.503 8.175 17.871 11.349 27.888-17.329 5.358-35.655 8.463-54.328 9.121v-77.995c15.905 3.423 30.944 17.669 42.979 40.986zm-57.979-40.986v77.995c-18.673-.658-36.999-3.763-54.328-9.121 3.174-10.017 6.96-19.386 11.349-27.889 12.035-23.316 27.074-37.562 42.979-40.985zm15 93c20.039-.661 39.729-3.961 58.375-9.689 4.335 17.813 6.846 37.257 7.345 57.45h-65.72zm141.387 47.761h-60.665c-.518-21.887-3.301-43.011-8.13-62.371 13.752-5.304 26.794-11.978 38.818-19.933 17.51 23.128 28.443 51.498 29.977 82.304zm-39.693-93.872c-10.343 6.702-21.484 12.398-33.206 17.015-3.404-10.679-7.474-20.682-12.18-29.798-5.761-11.162-12.251-20.582-19.292-28.13 25.032 7.848 47.237 22.138 64.678 40.913zm-218.49-.065c17.769-19.22 40.102-33.249 64.851-40.923-7.069 7.561-13.583 17.005-19.363 28.205-4.705 9.117-8.776 19.119-12.18 29.799-11.76-4.633-22.936-10.351-33.308-17.081zm43.421 36.487c18.646 5.728 38.335 9.028 58.375 9.689v47.761h-65.719c.499-20.193 3.009-39.637 7.344-57.45zm-43.319 166.322c10.343-6.702 21.484-12.399 33.206-17.016 3.404 10.679 7.474 20.682 12.18 29.799 5.761 11.162 12.25 20.582 19.291 28.13-25.031-7.848-47.235-22.138-64.677-40.913zm153.689 40.936c7.049-7.552 13.546-16.979 19.313-28.152 4.705-9.117 8.776-19.119 12.18-29.799 11.76 4.632 22.936 10.35 33.308 17.081-17.636 19.017-39.965 33.131-64.801 40.87z"/>
</svg>