<svg fill="none" viewBox="0 0 24 24" xmlns="http://www.w3.org/2000/svg">
    <g clip-rule="evenodd" fill-rule="evenodd">
        <path d="m12 10.625a.375.375 0 1 0 0 .75.375.375 0 0 0 0-.75zm-1.625.375a1.625 1.625 0 1 1 3.25 0 1.625 1.625 0 0 1 -3.25 0z" fill="#353535e6"/>
        <path d="m12 11.375c.345 0 .625.28.625.625v8a.625.625 0 1 1 -1.25 0v-8c0-.345.28-.625.625-.625z" fill="#353535e6"/>
        <g fill="#353535e6">
            <path d="m12 8.625a2.375 2.375 0 0 0 -2.375 2.375c0 .695.305 1.317.793 1.756a.625.625 0 0 1 -.836.93 3.604 3.604 0 0 1 -1.207-2.686 3.625 3.625 0 1 1 7.25 0 3.604 3.604 0 0 1 -1.207 2.686.625.625 0 0 1 -.836-.93 2.353 2.353 0 0 0 .793-1.756 2.375 2.375 0 0 0 -2.375-2.375z"/>
            <path d="m12 6.625a4.373 4.373 0 0 0 -1.75 8.38.625.625 0 0 1 -.5 1.146 5.623 5.623 0 0 1 2.25-10.776 5.623 5.623 0 0 1 2.25 10.776.625.625 0 0 1 -.5-1.146 4.372 4.372 0 0 0 -1.75-8.38z"/>
            <path d="m4.375 11a7.625 7.625 0 1 1 15.25 0 7.625 7.625 0 0 1 -5.447 7.305.625.625 0 0 1 -.356-1.198 6.375 6.375 0 1 0 -3.644 0 .625.625 0 0 1 -.356 1.198 7.625 7.625 0 0 1 -5.447-7.305z"/>
        </g>
    </g>
</svg>